<svg width="16" height="16" viewBox="0 0 16 16" fill="none" xmlns="http://www.w3.org/2000/svg">
<rect width="16" height="16" rx="3.77922" fill="#F0D449"/>
<path d="M7.77612 13.3858C7.70565 12.9707 8.34744 12.5351 8.67715 12.3691L10.2502 12.3288C10.5562 13.2269 10.3187 13.4912 10.1618 13.511C9.3959 13.6422 7.84659 13.8009 7.77612 13.3858Z" fill="#CE543E" stroke="black" stroke-width="0.199586"/>
<path d="M6.6101 13.8702C6.53964 13.4551 7.18143 13.0194 7.51113 12.8535L9.08414 12.8132C9.39015 13.7113 9.15271 13.9755 8.99573 13.9954C8.22989 14.1266 6.68057 14.2853 6.6101 13.8702Z" fill="#CE543E" stroke="black" stroke-width="0.199586"/>
<path d="M5.02473 4.54748C4.68382 3.99213 4.06856 3.67537 3.80354 3.58641C3.80874 3.20246 3.84364 2.42776 3.94171 2.40056C4.03977 2.37336 4.51293 2.11685 4.73725 1.992C5.09776 1.79138 6.19782 1.71478 6.67568 2.50023C7.15354 3.28568 7.16942 4.16172 7.17 4.4652C7.17134 5.16556 7.22216 5.72214 7.82091 6.51874C8.41966 7.31533 9.18591 7.39425 10.146 7.52393C13.3295 7.9539 13.4576 9.13219 13.2547 9.32217C13.5775 9.29015 14.2239 9.37116 14.2264 9.95133C14.2289 10.5315 13.4499 10.7337 13.0601 10.7623C12.2229 12.4447 10.0385 12.9935 9.05093 13.0576C8.5972 13.1242 7.40862 13.108 6.28411 12.51C3.9276 11.257 4.60751 9.07374 4.9924 7.17645C5.14522 6.53153 5.36564 5.10284 5.02473 4.54748Z" fill="#777165"/>
<path d="M5.02473 4.54748C4.68382 3.99213 4.06856 3.67537 3.80354 3.58641C3.80874 3.20246 3.84364 2.42776 3.94171 2.40056C4.03977 2.37336 4.51293 2.11685 4.73725 1.992C5.09776 1.79138 6.19781 1.71478 6.67568 2.50023C7.15354 3.28569 7.16942 4.16172 7.17 4.4652C7.17133 5.16556 7.13055 5.83738 7.7293 6.63398C5.31364 7.38126 5.32444 7.61084 4.56126 9.14271C4.60239 8.33921 5.35877 6.03237 5.02473 4.54748Z" fill="#3B3B3B"/>
<circle cx="5.20175" cy="3.27455" r="0.303415" transform="rotate(-4.19458 5.20175 3.27455)" fill="black"/>
<path d="M5.10232 5.62675C5.38672 5.10861 4.77358 4.3691 4.73095 4.27811L5.48205 3.94794C5.97386 3.67873 5.95161 2.84617 6.38491 2.95616C6.71911 3.041 7.10847 3.95368 6.46702 4.07578C5.47176 4.14877 5.29489 5.45216 5.10232 5.62675Z" fill="#D9D9D9"/>
<path fill-rule="evenodd" clip-rule="evenodd" d="M5.58025 1.79314C5.97946 1.84985 6.40559 2.03809 6.66469 2.46397C7.15775 3.27441 7.17296 4.17453 7.17355 4.48061C7.17421 4.82914 7.18738 5.13251 7.27155 5.44557C7.3554 5.75747 7.51132 6.08441 7.80444 6.47438C8.35839 7.21138 9.05537 7.3051 9.98226 7.42975C10.009 7.43335 10.036 7.43697 10.0631 7.44064C11.6635 7.65679 12.5151 8.06308 12.9415 8.45519C13.1553 8.65182 13.2645 8.84722 13.3032 9.01466C13.3209 9.09124 13.3243 9.16606 13.3135 9.23229C13.4656 9.23518 13.6448 9.26129 13.8045 9.33141C13.9172 9.38085 14.0239 9.45387 14.1027 9.55979C14.1823 9.66678 14.2292 9.8017 14.2299 9.9665C14.2314 10.3107 13.9985 10.5333 13.7402 10.6678C13.5045 10.7905 13.2291 10.8512 13.0278 10.8724C12.5909 11.7131 11.8284 12.269 11.0573 12.6231C10.273 12.9832 9.4701 13.1392 8.96515 13.1725C8.49185 13.2409 7.28459 13.2218 6.14102 12.6137C5.53912 12.2937 5.12586 11.9113 4.8536 11.4841C4.58144 11.057 4.45378 10.5908 4.41452 10.1085C4.34841 9.29627 4.53349 8.42524 4.70745 7.6065C4.73861 7.45985 4.76941 7.31488 4.79835 7.17222L4.79868 7.17063L4.79905 7.16905C4.87445 6.85086 4.9667 6.33817 4.99787 5.83778C5.01345 5.5876 5.0136 5.343 4.98957 5.12857C4.96534 4.91236 4.91746 4.73589 4.84343 4.6153C4.51909 4.08694 3.92773 3.78128 3.67554 3.69662L3.60653 3.67345L3.60751 3.60066C3.61013 3.40727 3.62022 3.11494 3.64215 2.86654C3.65307 2.74284 3.66719 2.62685 3.68553 2.53862C3.69459 2.49506 3.70557 2.45374 3.71964 2.4204C3.72663 2.40382 3.73601 2.38524 3.74901 2.36851C3.76139 2.35259 3.78376 2.32972 3.81879 2.32C3.83298 2.31607 3.87252 2.29935 3.93614 2.26857C3.9964 2.23942 4.07067 2.20147 4.14955 2.16012C4.30719 2.07748 4.4808 1.98256 4.59247 1.92041C4.79647 1.80689 5.18491 1.73699 5.58025 1.79314ZM12.7999 10.8741C12.7669 10.8707 12.7327 10.8657 12.6984 10.8586C12.5979 10.8376 12.4783 10.7944 12.4016 10.7022L12.5551 10.5746C12.5882 10.6144 12.6533 10.6453 12.7391 10.6632C12.8218 10.6804 12.9063 10.6821 12.9566 10.6784C13.1425 10.6648 13.4204 10.6093 13.648 10.4908C13.8761 10.372 14.0314 10.2034 14.0304 9.96737C14.0298 9.84208 13.995 9.74931 13.9426 9.67894C13.8894 9.6075 13.8139 9.55349 13.7243 9.51416C13.5428 9.43447 13.3191 9.42213 13.1683 9.43708L13.167 9.43721L12.5935 9.47927L12.5789 9.28022L13.1047 9.24166C13.1181 9.2107 13.1299 9.1511 13.1087 9.05956C13.081 8.93921 12.9972 8.77754 12.8064 8.6021C12.4236 8.25009 11.6195 7.85224 10.0364 7.63843C10.002 7.63378 9.96773 7.62919 9.93368 7.62463C9.02523 7.50294 8.24978 7.39906 7.6449 6.5943C7.33926 6.18768 7.17039 5.83803 7.07881 5.49739C6.98754 5.15793 6.97463 4.83282 6.97396 4.48099C6.97339 4.18013 6.95684 3.32818 6.49418 2.56771C6.27541 2.20813 5.91258 2.04194 5.55218 1.99075C5.18789 1.939 4.84605 2.00771 4.68953 2.0948M12.7999 10.8741C12.3834 11.6104 11.6914 12.1123 10.974 12.4417C10.212 12.7916 9.43109 12.9422 8.94822 12.9736L8.94418 12.9738L8.94018 12.9744C8.50319 13.0386 7.33691 13.0236 6.23472 12.4375C5.65836 12.131 5.27292 11.7707 5.02192 11.3768C4.77082 10.9828 4.65067 10.5496 4.61345 10.0923C4.54993 9.31193 4.72751 8.4746 4.90145 7.65445C4.93277 7.50676 4.96398 7.35963 4.99363 7.21349C5.07099 6.88664 5.1651 6.36338 5.19707 5.85019C5.21308 5.59316 5.21367 5.33616 5.18792 5.10635C5.16237 4.87834 5.10996 4.66797 5.01353 4.51088C4.68318 3.97275 4.11231 3.65192 3.8083 3.53271C3.81215 3.34625 3.82212 3.09752 3.84096 2.88409C3.85167 2.76272 3.86499 2.65593 3.88094 2.57925C3.88831 2.54381 3.8955 2.51852 3.90174 2.5024C3.93513 2.48979 3.97815 2.46996 4.02305 2.44824C4.08609 2.41775 4.16251 2.37867 4.24222 2.33689C4.40175 2.25326 4.57689 2.1575 4.68953 2.0948" fill="black"/>
<path d="M2.69374 2.7766C3.1302 2.72458 3.64218 2.53419 3.83575 2.44495C4.0859 3.12703 3.89021 3.51436 3.75651 3.62422C3.5271 3.566 3.00537 3.38747 2.73571 3.34888C2.61009 3.34141 2.36017 3.27636 2.36548 3.07585C2.37078 2.87534 2.58653 2.79281 2.69374 2.7766Z" fill="#CE543E" stroke="black" stroke-width="0.199586"/>
<path d="M4.61649 9.11439C4.44288 10.0443 4.5969 11.9676 6.72229 12.6372C6.8061 11.8472 6.48093 9.97826 4.61649 9.11439Z" fill="#D9D9D9"/>
</svg>
